<?xml version="1.0" encoding="UTF-8"?>
<svg version="1.1" xmlns="http://www.w3.org/2000/svg" width="622" height="782">
<path d="M0 0 C1.07893021 0.00648056 1.07893021 0.00648056 2.17965698 0.01309204 C12.90315756 0.08847667 23.1526621 0.58705205 33.5625 3.375 C34.2028418 3.54128906 34.84318359 3.70757812 35.50292969 3.87890625 C57.94034974 9.82697048 78.54534627 20.59959662 95.5625 36.375 C96.11180176 36.88047363 96.66110352 37.38594727 97.22705078 37.90673828 C123.84083961 62.66752179 137.10448348 95.78028332 141.5625 131.375 C141.65821289 132.10702637 141.75392578 132.83905273 141.85253906 133.59326172 C142.77913652 141.53908404 142.80599681 149.51055182 142.8125 157.5 C142.81317474 158.24866333 142.81384949 158.99732666 142.81454468 159.76867676 C142.73224274 217.60770982 120.9588901 273.14101561 81.90625 315.8046875 C80.30307331 317.56283793 78.72053918 319.33997458 77.15625 321.1328125 C72.26014075 326.69516446 67.21569111 331.55639442 61.390625 336.13671875 C58.49586012 338.42774123 55.72586399 340.83113233 52.9375 343.25 C45.606378 349.35297011 37.7045777 354.4255776 29.5625 359.375 C28.86415039 359.80312988 28.16580078 360.23125977 27.44628906 360.67236328 C2.40982896 375.84013946 -26.6483692 385.44834598 -55.4375 390.375 C-57.37496094 390.71337891 -57.37496094 390.71337891 -59.3515625 391.05859375 C-88.62693148 395.47751737 -121.07338505 393.59225095 -149.4375 385.375 C-146.55432428 383.45288286 -145.11257446 382.94283983 -141.81640625 382.296875 C-140.89118164 382.10891357 -139.96595703 381.92095215 -139.01269531 381.72729492 C-138.01850586 381.5285376 -137.02431641 381.32978027 -136 381.125 C-100.18319646 373.60100345 -65.80937437 358.80732319 -37.4375 335.375 C-36.88143066 334.92044434 -36.32536133 334.46588867 -35.75244141 333.99755859 C-16.8635053 318.48297738 -1.00166643 300.72124964 12.5625 280.375 C11.80332275 280.36041748 11.04414551 280.34583496 10.26196289 280.33081055 C-34.35502378 279.37547974 -70.93560119 267.32599613 -102.81469727 235.09155273 C-128.01677536 208.43353993 -140.22947438 171.58659311 -139.6484375 135.34765625 C-138.50705098 99.84489887 -123.92360918 68.49506535 -100.4375 42.375 C-99.56738281 41.39660156 -99.56738281 41.39660156 -98.6796875 40.3984375 C-73.71553593 13.92890996 -35.93814048 -0.41248117 0 0 Z " fill="#FFFFFF" transform="translate(149.4375,238.625)"/>
<path d="M0 0 C0.79277344 0.20979492 1.58554687 0.41958984 2.40234375 0.63574219 C22.25785585 6.11971837 41.44632108 15.39053094 57 29 C57.5053125 29.43135254 58.010625 29.86270508 58.53125 30.30712891 C90.28280279 57.48447362 104.81177937 95.34035285 108.375 136.3125 C110.57906816 166.60235343 107.24889423 197.06933144 98 226 C97.57509277 227.33442139 97.57509277 227.33442139 97.14160156 228.69580078 C90.5605954 248.90785231 81.40542352 268.67561755 69 286 C68.55188965 286.62777344 68.1037793 287.25554687 67.64208984 287.90234375 C53.98660775 306.86752092 38.6432706 324.76424174 20 339 C19.46890625 339.41282227 18.9378125 339.82564453 18.390625 340.25097656 C-14.90336448 366.04236405 -55.15366702 382.89907147 -97 388 C-97.70882324 388.0942627 -98.41764648 388.18852539 -99.14794922 388.28564453 C-107.60802707 389.29078449 -116.11766333 389.24272832 -124.625 389.25 C-125.44269867 389.25100708 -126.26039734 389.25201416 -127.10287476 389.25305176 C-146.55859969 389.23689824 -165.25686789 387.42999563 -184 382 C-181.21039166 380.47939924 -178.75420992 379.62455227 -175.6328125 379.0625 C-142.88053376 372.77284944 -112.60816857 360.76804677 -85 342 C-83.95585937 341.29101562 -82.91171875 340.58203125 -81.8359375 339.8515625 C-74.52084034 334.68672445 -67.74793071 328.87371352 -61 323 C-60.07574219 322.20078125 -59.15148437 321.4015625 -58.19921875 320.578125 C-53.01959934 316.01943113 -48.43182839 311.27598618 -44 306 C-43.07485561 304.94621127 -42.14758992 303.89428285 -41.21875 302.84375 C-30.49644188 290.71395063 -30.49644188 290.71395063 -22 277 C-23.1152002 276.98598145 -23.1152002 276.98598145 -24.25292969 276.97167969 C-39.88059661 276.72606767 -54.86424403 276.07913991 -70 272 C-71.1149585 271.70464355 -71.1149585 271.70464355 -72.25244141 271.40332031 C-94.84102018 265.19750417 -114.08955952 252.98458705 -131 237 C-131.81082031 236.25363281 -132.62164062 235.50726563 -133.45703125 234.73828125 C-150.83929149 218.17723016 -162.91897915 196.13356673 -169 173 C-169.20737793 172.23381348 -169.41475586 171.46762695 -169.62841797 170.67822266 C-175.10141197 149.61260385 -175.41963713 125.10574133 -170 104 C-169.8443457 103.34032227 -169.68869141 102.68064453 -169.52832031 102.00097656 C-165.44186524 84.83133996 -157.64335716 68.08555402 -147 54 C-146.3503125 53.12988281 -145.700625 52.25976562 -145.03125 51.36328125 C-125.79033544 26.77367963 -100.19308733 9.21969899 -70 1 C-69.26861816 0.79117188 -68.53723633 0.58234375 -67.78369141 0.3671875 C-46.87609676 -5.4117759 -20.96971423 -5.60529246 0 0 Z " fill="#FFFFFF" transform="translate(513,242)"/>
</svg>
