<?xml version="1.0" encoding="UTF-8"?>
<svg version="1.1" xmlns="http://www.w3.org/2000/svg" width="622" height="782">
<path d="M0 0 C0.75800903 -0.00526703 1.51601807 -0.01053406 2.29699707 -0.01596069 C17.22642287 -0.09604206 31.70710026 1.40315972 46.375 4.25 C47.28314453 4.415 48.19128906 4.58 49.12695312 4.75 C50.42342773 4.9975 50.42342773 4.9975 51.74609375 5.25 C52.50720459 5.394375 53.26831543 5.53875 54.05249023 5.6875 C55.9375 6.25 55.9375 6.25 57.9375 8.25 C57.15439453 8.42015625 56.37128906 8.5903125 55.56445312 8.765625 C16.88961444 17.25467307 -18.43308814 29.85071305 -50.0625 54.25 C-50.96484375 54.93835938 -51.8671875 55.62671875 -52.796875 56.3359375 C-59.55207719 61.60671628 -65.8460111 67.36369838 -72.0625 73.25 C-72.99320313 74.1265625 -73.92390625 75.003125 -74.8828125 75.90625 C-86.04664862 86.72022231 -95.45254487 99.33506731 -104.0625 112.25 C-103.30332275 112.26458252 -102.54414551 112.27916504 -101.76196289 112.29418945 C-63.70667089 113.10902244 -27.75054632 121.18698244 0.75 148.1875 C2.72503812 150.0496788 4.76373986 151.73487086 6.875 153.4375 C29.37103229 173.0646051 42.53231109 205.38720223 46.9375 234.25 C47.06769531 235.08917969 47.19789063 235.92835938 47.33203125 236.79296875 C51.77082486 272.1257659 41.38585159 309.00076264 19.9375 337.25 C9.41676726 350.77665638 -2.49187902 362.11400196 -17.0625 371.25 C-17.66545898 371.62898438 -18.26841797 372.00796875 -18.88964844 372.3984375 C-48.86960402 390.92415396 -87.85206887 398.09961339 -122.4128418 390.07958984 C-124.64234941 389.50865625 -126.85155514 388.8887174 -129.0625 388.25 C-129.79710449 388.05164551 -130.53170898 387.85329102 -131.28857422 387.64892578 C-156.79846272 380.65526605 -181.06646381 365.57442661 -198.0625 345.25 C-198.76375 344.44820312 -199.465 343.64640625 -200.1875 342.8203125 C-218.16058253 321.78930968 -227.53363832 296.24375541 -232.0625 269.25 C-232.18254395 268.55696777 -232.30258789 267.86393555 -232.42626953 267.14990234 C-242.27129891 207.59554431 -224.36084436 144.68499894 -189.8125 96.125 C-188.57747402 94.48859057 -187.32773094 92.86316945 -186.0625 91.25 C-185.381875 90.37859375 -184.70125 89.5071875 -184 88.609375 C-170.62882722 71.89540903 -155.50100215 56.7121491 -138.0625 44.25 C-137.41893555 43.78770996 -136.77537109 43.32541992 -136.11230469 42.84912109 C-106.52405095 21.81997541 -71.98886145 7.71312244 -36.0625 2.25 C-34.83402344 2.04503906 -33.60554687 1.84007812 -32.33984375 1.62890625 C-21.61249747 0.03059292 -10.82135528 0.03811898 0 0 Z " fill="#FFFFFF" transform="translate(564.0625,237.75)"/>
<path d="M0 0 C0.76306458 -0.00199402 1.52612915 -0.00398804 2.31231689 -0.00604248 C16.94464057 -0.00169644 31.28081566 1.40883587 45.625 4.375 C46.47707031 4.54 47.32914062 4.705 48.20703125 4.875 C52.03672059 5.64940795 54.43942343 6.16794895 57.75 8.375 C57.08919434 8.50438965 56.42838867 8.6337793 55.74755859 8.76708984 C13.05364601 17.29123863 -25.9998929 32.79513695 -59.25 61.375 C-60.04792969 62.05433594 -60.84585938 62.73367188 -61.66796875 63.43359375 C-63.54904789 65.05935676 -65.40103868 66.71288109 -67.25 68.375 C-68.05824219 69.08011719 -68.86648437 69.78523438 -69.69921875 70.51171875 C-74.99466521 75.17392797 -79.72892925 79.97018085 -84.25 85.375 C-85.49910156 86.79232422 -85.49910156 86.79232422 -86.7734375 88.23828125 C-93.70683286 96.15214434 -99.59665858 104.50869665 -105.25 113.375 C-104.49082275 113.35928955 -103.73164551 113.3435791 -102.94946289 113.32739258 C-60.34647107 112.56345908 -24.34219129 124.44993301 6.75 154.375 C7.38164062 154.94347656 8.01328125 155.51195312 8.6640625 156.09765625 C30.86952924 176.67191572 45.65238249 211.46296517 46.87475586 241.43383789 C47.75428475 279.96597121 38.9563619 313.80692994 13.98388672 343.88720703 C12.93511888 345.1517878 11.90494853 346.43175539 10.87890625 347.71484375 C6.17294397 353.41391079 0.55753473 357.84247959 -5.25 362.375 C-6.12011719 363.09558594 -6.99023438 363.81617188 -7.88671875 364.55859375 C-22.03552849 375.88167829 -38.81560366 383.67672025 -56.25 388.375 C-56.97316406 388.58237793 -57.69632813 388.78975586 -58.44140625 389.00341797 C-91.47683083 398.21633951 -130.25551796 392.94162103 -160.08691406 376.42016602 C-171.08952166 370.10558664 -180.8108982 362.79028388 -190.25 354.375 C-190.95640625 353.75367188 -191.6628125 353.13234375 -192.390625 352.4921875 C-223.12365466 323.69611349 -233.44677475 281.98950358 -235.25 241.375 C-236.24324412 200.37306656 -226.8037263 159.45788607 -207.25 123.375 C-206.93063477 122.78170898 -206.61126953 122.18841797 -206.28222656 121.57714844 C-196.18264504 102.96725965 -183.83866241 86.71489042 -169.25 71.375 C-168.71213867 70.80845703 -168.17427734 70.24191406 -167.62011719 69.65820312 C-159.39807268 61.060918 -150.8092202 53.44657119 -141.25 46.375 C-140.68313477 45.94735352 -140.11626953 45.51970703 -139.53222656 45.07910156 C-130.54926589 38.30985396 -121.17502669 32.65055208 -111.25 27.375 C-110.62963867 27.03758789 -110.00927734 26.70017578 -109.37011719 26.35253906 C-75.67822043 8.0901413 -38.10714529 0.02608424 0 0 Z " fill="#FFFFFF" transform="translate(235.25,237.625)"/>
</svg>
